<svg width="608" height="57" viewBox="0 0 608 57" fill="none" xmlns="http://www.w3.org/2000/svg">
<rect y="0.670807" width="608" height="55.6522" rx="20" fill="#FF5374"/>
<path d="M283.2 35.6969C282.48 35.6969 281.82 35.5169 281.22 35.1569C280.633 34.7836 280.16 34.2969 279.8 33.6969C279.453 33.0836 279.28 32.4102 279.28 31.6769V30.7569C279.28 30.6902 279.313 30.6569 279.38 30.6569H281.62C281.673 30.6569 281.7 30.6902 281.7 30.7569V31.6769C281.7 32.1169 281.847 32.4969 282.14 32.8169C282.433 33.1236 282.787 33.2769 283.2 33.2769C283.613 33.2769 283.967 33.1169 284.26 32.7969C284.553 32.4769 284.7 32.1036 284.7 31.6769C284.7 31.1836 284.38 30.7569 283.74 30.3969C283.527 30.2769 283.193 30.0902 282.74 29.8369C282.287 29.5836 281.86 29.3436 281.46 29.1169C280.727 28.6902 280.18 28.1569 279.82 27.5169C279.473 26.8636 279.3 26.1302 279.3 25.3169C279.3 24.5702 279.48 23.9036 279.84 23.3169C280.2 22.7169 280.673 22.2436 281.26 21.8969C281.86 21.5502 282.507 21.3769 283.2 21.3769C283.907 21.3769 284.553 21.5569 285.14 21.9169C285.74 22.2636 286.213 22.7369 286.56 23.3369C286.92 23.9236 287.1 24.5836 287.1 25.3169V26.9569C287.1 27.0102 287.073 27.0369 287.02 27.0369H284.78C284.727 27.0369 284.7 27.0102 284.7 26.9569L284.68 25.3169C284.68 24.8502 284.533 24.4702 284.24 24.1769C283.947 23.8836 283.6 23.7369 283.2 23.7369C282.787 23.7369 282.433 23.8969 282.14 24.2169C281.847 24.5236 281.7 24.8902 281.7 25.3169C281.7 25.7569 281.793 26.1236 281.98 26.4169C282.167 26.7102 282.507 26.9902 283 27.2569C283.067 27.2969 283.193 27.3702 283.38 27.4769C283.58 27.5702 283.793 27.6836 284.02 27.8169C284.247 27.9369 284.447 28.0436 284.62 28.1369C284.807 28.2302 284.92 28.2902 284.96 28.3169C285.627 28.6902 286.153 29.1502 286.54 29.6969C286.927 30.2302 287.12 30.8902 287.12 31.6769C287.12 32.4369 286.94 33.1236 286.58 33.7369C286.233 34.3369 285.76 34.8169 285.16 35.1769C284.573 35.5236 283.92 35.6969 283.2 35.6969ZM287.44 35.3969L289.92 21.6569C289.934 21.6036 289.967 21.5769 290.02 21.5769H292.92C292.974 21.5769 293.007 21.6036 293.02 21.6569L295.4 35.3969C295.414 35.4636 295.387 35.4969 295.32 35.4969H293.1C293.047 35.4969 293.014 35.4636 293 35.3969L292.78 33.9369H290.06L289.84 35.3969C289.827 35.4636 289.794 35.4969 289.74 35.4969H287.52C287.467 35.4969 287.44 35.4636 287.44 35.3969ZM290.46 31.7969H292.38L291.56 26.1769L291.44 25.4369L291.36 26.1769L290.46 31.7969ZM296.735 35.4969C296.682 35.4969 296.655 35.4636 296.655 35.3969L296.675 21.6769C296.675 21.6102 296.709 21.5769 296.775 21.5769H298.995C299.062 21.5769 299.095 21.6102 299.095 21.6769L299.075 33.0369H303.195C303.262 33.0369 303.295 33.0702 303.295 33.1369V35.3969C303.295 35.4636 303.262 35.4969 303.195 35.4969H296.735ZM305.653 35.4969C305.6 35.4969 305.567 35.4636 305.553 35.3969L302.793 21.6569C302.78 21.6036 302.807 21.5769 302.873 21.5769H305.133C305.187 21.5769 305.22 21.6036 305.233 21.6569L306.873 30.8169L308.473 21.6569C308.487 21.6036 308.52 21.5769 308.573 21.5769H310.813C310.88 21.5769 310.907 21.6036 310.893 21.6569L308.173 35.3969C308.16 35.4636 308.127 35.4969 308.073 35.4969H305.653ZM310.546 35.3969L313.026 21.6569C313.039 21.6036 313.072 21.5769 313.126 21.5769H316.026C316.079 21.5769 316.112 21.6036 316.126 21.6569L318.506 35.3969C318.519 35.4636 318.492 35.4969 318.426 35.4969H316.206C316.152 35.4969 316.119 35.4636 316.106 35.3969L315.886 33.9369H313.166L312.946 35.3969C312.932 35.4636 312.899 35.4969 312.846 35.4969H310.626C310.572 35.4969 310.546 35.4636 310.546 35.3969ZM313.566 31.7969H315.486L314.666 26.1769L314.546 25.4369L314.466 26.1769L313.566 31.7969ZM319.841 35.4969C319.788 35.4969 319.761 35.4636 319.761 35.3969L319.801 21.6569C319.801 21.6036 319.828 21.5769 319.881 21.5769H323.921C324.641 21.5769 325.301 21.7569 325.901 22.1169C326.514 22.4636 327.001 22.9369 327.361 23.5369C327.721 24.1236 327.901 24.7902 327.901 25.5369C327.901 26.0302 327.828 26.4769 327.681 26.8769C327.534 27.2636 327.361 27.5969 327.161 27.8769C326.961 28.1436 326.781 28.3436 326.621 28.4769C327.341 29.2769 327.701 30.2169 327.701 31.2969L327.721 35.3969C327.721 35.4636 327.688 35.4969 327.621 35.4969H325.361C325.308 35.4969 325.281 35.4769 325.281 35.4369V31.2969C325.281 30.8169 325.108 30.4036 324.761 30.0569C324.428 29.6969 324.014 29.5169 323.521 29.5169H322.201L322.181 35.3969C322.181 35.4636 322.154 35.4969 322.101 35.4969H319.841ZM322.201 27.1169H323.921C324.334 27.1169 324.701 26.9636 325.021 26.6569C325.341 26.3502 325.501 25.9769 325.501 25.5369C325.501 25.1102 325.341 24.7436 325.021 24.4369C324.714 24.1302 324.348 23.9769 323.921 23.9769H322.201V27.1169Z" fill="white"/>
</svg>
